# xmcd CD database file
#
# Track frame offsets:
#	150
#	29698
#	60549
#	95586
#	117425
#	154488
#	180981
#	221644
#	255983
#	268676
#
# Disc length: 3965 seconds
#
# Revision: 0
# Processed by: cddbd v1.5.2PL0 Copyright (c) Steve Scherf et al.
# Submitted via: CDex 1.51
#
DISCID=8d0f7b0a
DTITLE=Joe Magnarelli - Hoop Dreams
DYEAR=2006
DGENRE=Jazz
TTITLE0=Genet
TTITLE1=Division Street
TTITLE2=Paris In The Spring
TTITLE3=Ask Me Now
TTITLE4=Hoop Dreams
TTITLE5=I Mean You
TTITLE6=Old Folks
TTITLE7=Dance Only With Me
TTITLE8=Monk's Mood
TTITLE9=Baretto's Beat
EXTD=YEAR: 2006
EXTT0=
EXTT1=
EXTT2=
EXTT3=
EXTT4=
EXTT5=
EXTT6=
EXTT7=
EXTT8=
EXTT9=
PLAYORDER=
